<svg width="125" height="40" viewBox="0 0 125 40" fill="none" xmlns="http://www.w3.org/2000/svg">
<path d="M33.3216 30.1301L15.1574 19.9868L0 29.0717L16.9386 40L33.3216 30.1301Z" fill="url(#paint0_linear_1655_25844)"/>
<path d="M32.5986 9.49941L16.9033 0L0 11.0077V29.0715L32.5986 9.49941Z" fill="url(#paint1_linear_1655_25844)"/>
<path d="M54.0846 20.8526C51.6157 20.8526 49.5347 20.0487 47.8488 18.4478C46.1629 16.847 45.3164 14.5762 45.3164 11.6425C45.3164 10.1474 45.5562 8.80753 46.0359 7.61572C46.5156 6.4239 47.1646 5.45775 47.9899 4.71022C48.8152 3.96269 49.7464 3.39852 50.7833 3.01065C51.8202 2.62278 52.9207 2.43237 54.0917 2.43237C56.1303 2.43237 57.8867 2.98949 59.354 4.10374C60.8212 5.21798 61.6748 6.65662 61.9146 8.42672H59.1071C58.9519 7.383 58.4017 6.51558 57.4635 5.83152C56.5182 5.14746 55.3967 4.8019 54.0917 4.8019C52.2929 4.8019 50.8327 5.40134 49.7181 6.6002C48.6036 7.79907 48.0463 9.47749 48.0463 11.6425C48.0463 13.8075 48.5965 15.5071 49.704 16.6989C50.8115 17.8907 52.2717 18.4831 54.0917 18.4831C55.4319 18.4831 56.5747 18.1446 57.527 17.4676C58.4793 16.7906 59.0224 15.9232 59.1635 14.8583H61.8934C61.703 16.6213 60.8847 18.067 59.4245 19.1813C57.9643 20.2955 56.1938 20.8526 54.0987 20.8526H54.0846Z" fill="#F7F7F7"/>
<path d="M68.7007 20.8525C66.7468 20.8525 65.216 20.2319 64.1226 18.9977C63.0222 17.7636 62.4791 16.1487 62.4791 14.16C62.4791 12.1712 63.0293 10.5775 64.1226 9.33627C65.2231 8.09509 66.7397 7.4745 68.6796 7.4745C69.5049 7.4745 70.2949 7.65786 71.0497 8.01752C71.8045 8.37718 72.3759 8.84262 72.7709 9.4068V7.68607H75.2681V20.6479H72.7709V18.899C72.4605 19.4632 71.9315 19.9357 71.1767 20.3024C70.4219 20.6691 69.5966 20.8525 68.7078 20.8525H68.7007ZM66.0907 17.4322C66.8173 18.2573 67.7837 18.6663 68.9829 18.6663C70.1821 18.6663 71.1485 18.2573 71.8751 17.4322C72.6016 16.6071 72.9684 15.521 72.9684 14.167C72.9684 12.813 72.6016 11.727 71.8751 10.9019C71.1485 10.0768 70.1821 9.66773 68.9829 9.66773C67.7837 9.66773 66.8173 10.0768 66.0907 10.9019C65.3642 11.727 64.9974 12.813 64.9974 14.167C64.9974 15.521 65.3642 16.6071 66.0907 17.4322Z" fill="#F7F7F7"/>
<path d="M77.6248 25.895V7.68634H80.1219V9.61863C80.517 8.96983 81.0813 8.44797 81.822 8.0601C82.5556 7.67223 83.3739 7.48182 84.2627 7.48182C86.1814 7.48182 87.6909 8.10241 88.7773 9.34359C89.8636 10.5848 90.4138 12.1927 90.4138 14.1673C90.4138 16.1419 89.8495 17.7498 88.7279 18.991C87.6063 20.2321 86.0756 20.8527 84.1357 20.8527C83.2751 20.8527 82.4921 20.6694 81.7655 20.3027C81.039 19.936 80.4958 19.4423 80.1219 18.8217V25.895H77.6248ZM81.0108 17.4324C81.7373 18.2575 82.7037 18.6666 83.9029 18.6666C85.1021 18.6666 86.0685 18.2575 86.7951 17.4324C87.5217 16.6073 87.8885 15.5213 87.8885 14.1673C87.8885 12.8133 87.5217 11.7272 86.7951 10.9021C86.0685 10.077 85.1021 9.66799 83.9029 9.66799C82.7037 9.66799 81.7373 10.077 81.0108 10.9021C80.2842 11.7272 79.9174 12.8133 79.9174 14.1673C79.9174 15.5213 80.2842 16.6073 81.0108 17.4324Z" fill="#F7F7F7"/>
<path d="M97.5874 20.8527C95.6475 20.8527 94.0815 20.1898 92.8823 18.8711C91.6831 17.5523 91.0835 15.9585 91.0835 14.0897C91.0835 12.2209 91.6408 10.6271 92.7553 9.3718C93.8699 8.10947 95.3936 7.48182 97.3334 7.48182C99.2733 7.48182 100.762 8.0742 101.848 9.25897C102.934 10.4437 103.485 11.8965 103.485 13.6313C103.485 13.9769 103.47 14.3013 103.435 14.6116H93.5313C93.6371 15.8457 94.0533 16.84 94.794 17.5946C95.5276 18.3492 96.4658 18.723 97.5944 18.723C99.5484 18.723 100.712 17.9613 101.093 16.431H103.59C103.351 17.7709 102.687 18.8429 101.608 19.6468C100.529 20.4508 99.1886 20.8527 97.5944 20.8527H97.5874ZM93.6018 12.778H100.959C100.875 11.7836 100.515 10.9867 99.8799 10.3873C99.2451 9.78788 98.3986 9.48464 97.3334 9.48464C95.2384 9.48464 93.9969 10.5848 93.6018 12.778Z" fill="#F7F7F7"/>
<path d="M110.736 9.84415C108.641 9.84415 107.597 11.4873 107.597 14.7807V20.641H105.099V7.67913H107.597V10.1756C107.886 9.30113 108.309 8.66644 108.859 8.27152C109.409 7.8766 110.136 7.67913 111.046 7.67913H112.612V9.8371H110.736V9.84415Z" fill="#F7F7F7"/>
<path d="M118.425 20.8525C116.471 20.8525 114.94 20.2319 113.847 18.9977C112.747 17.7636 112.203 16.1487 112.203 14.16C112.203 12.1712 112.754 10.5775 113.847 9.33627C114.947 8.09509 116.464 7.4745 118.404 7.4745C119.229 7.4745 120.019 7.65786 120.774 8.01752C121.529 8.37718 122.1 8.84262 122.495 9.4068V7.68607H124.992V20.6479H122.495V18.899C122.185 19.4632 121.656 19.9357 120.901 20.3024C120.146 20.6691 119.321 20.8525 118.432 20.8525H118.425ZM115.815 17.4322C116.542 18.2573 117.508 18.6663 118.707 18.6663C119.906 18.6663 120.873 18.2573 121.599 17.4322C122.326 16.6071 122.693 15.521 122.693 14.167C122.693 12.813 122.326 11.727 121.599 10.9019C120.873 10.0768 119.906 9.66773 118.707 9.66773C117.508 9.66773 116.542 10.0768 115.815 10.9019C115.088 11.727 114.722 12.813 114.722 14.167C114.722 15.521 115.088 16.6071 115.815 17.4322Z" fill="#F7F7F7"/>
<path d="M49.0466 37.5675C47.9747 37.5675 47.085 37.2031 46.3776 36.4742C45.6701 35.7453 45.3164 34.8306 45.3164 33.7301C45.3164 32.6297 45.6701 31.715 46.3776 30.9861C47.085 30.2572 47.9747 29.8927 49.0466 29.8927C50.1114 29.8927 50.9975 30.2572 51.7049 30.9861C52.4124 31.715 52.7661 32.6297 52.7661 33.7301C52.7661 34.8306 52.4124 35.7453 51.7049 36.4742C50.9975 37.2031 50.1114 37.5675 49.0466 37.5675ZM49.0359 36.5814C49.7862 36.5814 50.4043 36.3134 50.8903 35.7775C51.3833 35.2344 51.6299 34.5519 51.6299 33.7301C51.6299 32.9083 51.3833 32.2295 50.8903 31.6935C50.4043 31.1504 49.7862 30.8789 49.0359 30.8789C48.2927 30.8789 47.6746 31.1504 47.1815 31.6935C46.6956 32.2295 46.4526 32.9083 46.4526 33.7301C46.4526 34.5519 46.6956 35.2344 47.1815 35.7775C47.6746 36.3134 48.2927 36.5814 49.0359 36.5814Z" fill="#F7F7F7"/>
<path d="M57.9358 37.4818V29.9785H59.0506V37.4818H57.9358Z" fill="#F7F7F7"/>
<path d="M64.6209 37.4818V29.9785H65.7357V36.4956H69.3908V37.4818H64.6209Z" fill="#F7F7F7"/>
<path d="M82.2464 37.5675C81.5175 37.5675 80.9351 37.3782 80.4992 36.9994C80.0704 36.6135 79.8561 36.0883 79.8561 35.4237C79.8561 34.9307 79.9883 34.5305 80.2527 34.2232C80.5242 33.9159 80.8958 33.6372 81.3674 33.3871C80.8029 32.744 80.5206 32.1866 80.5206 31.715C80.5206 31.1719 80.6993 30.7324 81.0566 30.3965C81.421 30.0607 81.8891 29.8927 82.4608 29.8927C83.0324 29.8927 83.4969 30.0571 83.8542 30.3858C84.2115 30.7074 84.3902 31.129 84.3902 31.6507C84.3902 32.1509 84.2508 32.5582 83.9721 32.8726C83.7006 33.1799 83.3218 33.4586 82.8359 33.7087L84.2723 35.2844L84.6581 34.7592C84.8797 34.409 85.1083 34.1768 85.3442 34.0624C85.5871 33.9409 85.8694 33.8802 86.191 33.8802V34.8663C85.7622 34.8663 85.4192 35.0736 85.1619 35.488L84.8832 35.949L86.2874 37.4818H85.1191L84.3687 36.6671C83.8113 37.2674 83.1039 37.5675 82.2464 37.5675ZM80.8636 35.4344C80.8636 35.8132 80.9851 36.1097 81.2281 36.3241C81.471 36.5385 81.8105 36.6457 82.2464 36.6457C82.8395 36.6457 83.3397 36.4277 83.747 35.9918L82.0213 34.1053C81.6425 34.2982 81.3531 34.4948 81.153 34.6948C80.9601 34.8949 80.8636 35.1415 80.8636 35.4344ZM81.4853 31.7043C81.4853 32.0187 81.7176 32.4439 82.1821 32.9798C82.5894 32.7797 82.9002 32.5832 83.1146 32.3903C83.329 32.1902 83.4362 31.9401 83.4362 31.6399C83.4362 31.3684 83.3433 31.1469 83.1575 30.9754C82.9788 30.8039 82.7466 30.7181 82.4608 30.7181C82.1749 30.7181 81.9391 30.811 81.7533 30.9968C81.5747 31.1754 81.4853 31.4113 81.4853 31.7043Z" fill="#F7F7F7"/>
<path d="M100.534 37.5675C99.8905 37.5675 99.2974 37.4317 98.7543 37.1602C98.2184 36.8815 97.7753 36.4456 97.4252 35.8525C97.075 35.2594 96.8999 34.5519 96.8999 33.7301C96.8999 32.9083 97.075 32.2009 97.4252 31.6078C97.7825 31.0147 98.2327 30.5823 98.7758 30.3108C99.326 30.0321 99.9263 29.8927 100.577 29.8927C101.463 29.8927 102.206 30.1286 102.806 30.6002C103.413 31.0718 103.756 31.6792 103.835 32.4224H102.688C102.61 31.9651 102.374 31.5935 101.981 31.3077C101.588 31.0218 101.116 30.8789 100.566 30.8789C99.8083 30.8789 99.1902 31.1326 98.7114 31.6399C98.2398 32.1402 98.004 32.8369 98.004 33.7301C98.004 34.6234 98.2398 35.3273 98.7114 35.8418C99.1902 36.3563 99.8048 36.6135 100.555 36.6135C101.148 36.6135 101.663 36.4563 102.099 36.1419C102.535 35.8275 102.752 35.4309 102.752 34.9521C102.752 34.802 102.706 34.6841 102.613 34.5984C102.52 34.5055 102.395 34.459 102.238 34.459H100.619V33.5586H102.527C102.849 33.5586 103.146 33.6765 103.417 33.9124C103.689 34.141 103.824 34.4447 103.824 34.8235V37.4818H102.806V36.2169C102.642 36.6243 102.352 36.953 101.938 37.2031C101.531 37.446 101.062 37.5675 100.534 37.5675Z" fill="#F7F7F7"/>
<path d="M111.802 31.372L110.58 34.5984H113.024L111.802 31.372ZM108.34 37.4818L111.287 29.9785H112.316L115.264 37.4818H114.106L113.388 35.5738H110.215L109.497 37.4818H108.34Z" fill="#F7F7F7"/>
<path d="M122.216 37.5675C121.38 37.5675 120.705 37.3353 120.19 36.8708C119.676 36.3992 119.397 35.7739 119.354 34.995H120.437C120.48 35.4809 120.655 35.8668 120.962 36.1526C121.276 36.4385 121.694 36.5814 122.216 36.5814C122.716 36.5814 123.113 36.4849 123.406 36.292C123.699 36.0919 123.845 35.7953 123.845 35.4023C123.845 35.1593 123.767 34.9557 123.61 34.7913C123.452 34.627 123.249 34.4983 122.999 34.4054C122.748 34.3125 122.473 34.2268 122.173 34.1482C121.873 34.0696 121.573 33.9802 121.273 33.8802C120.973 33.7802 120.698 33.6587 120.447 33.5158C120.197 33.3657 119.994 33.1549 119.836 32.8833C119.679 32.6118 119.601 32.2902 119.601 31.9186C119.601 31.3184 119.836 30.8324 120.308 30.4609C120.787 30.0821 121.405 29.8927 122.163 29.8927C122.927 29.8927 123.552 30.1 124.038 30.5145C124.524 30.9218 124.789 31.4684 124.832 32.1544H123.76C123.717 31.7686 123.552 31.4613 123.267 31.2326C122.981 30.9968 122.613 30.8789 122.163 30.8789C121.712 30.8789 121.355 30.9718 121.091 31.1576C120.833 31.3434 120.705 31.5971 120.705 31.9186C120.705 32.1616 120.783 32.3653 120.941 32.5296C121.098 32.694 121.301 32.819 121.552 32.9048C121.809 32.9905 122.087 33.0691 122.388 33.1406C122.695 33.2121 122.999 33.2978 123.299 33.3978C123.606 33.4979 123.885 33.6229 124.135 33.773C124.392 33.9159 124.599 34.1267 124.756 34.4054C124.914 34.677 124.992 35.0057 124.992 35.3916C124.992 36.0633 124.735 36.5957 124.221 36.9887C123.706 37.3746 123.038 37.5675 122.216 37.5675Z" fill="#F7F7F7"/>
<defs>
<linearGradient id="paint0_linear_1655_25844" x1="0" y1="29.9978" x2="33.3216" y2="29.9978" gradientUnits="userSpaceOnUse">
<stop stop-color="#008232"/>
<stop offset="1" stop-color="#5FC518"/>
</linearGradient>
<linearGradient id="paint1_linear_1655_25844" x1="0" y1="14.5358" x2="58.0637" y2="14.5358" gradientUnits="userSpaceOnUse">
<stop stop-color="#1A1A1B"/>
<stop offset="1" stop-color="#4E4E4E"/>
</linearGradient>
</defs>
</svg>
