<svg width="1332" height="392" viewBox="0 0 1332 392" fill="none" xmlns="http://www.w3.org/2000/svg">
<g style="mix-blend-mode:overlay" opacity="0.1">
<path d="M146.584 308.031C105.309 308.031 70.5207 294.587 42.336 267.817C14.1513 241.047 0 203.074 0 154.015C0 129.014 4.0095 106.608 12.0286 86.6778C20.0477 66.7478 30.897 50.5916 44.6945 38.0911C58.4921 25.5906 74.0585 16.1563 91.3939 9.67018C108.729 3.18408 127.126 0 146.702 0C180.783 0 210.147 9.31639 234.676 27.9492C259.205 46.582 273.474 70.6395 277.484 100.24H230.548C227.954 82.7862 218.756 68.2809 203.071 56.8418C187.269 45.4027 168.519 39.6242 146.702 39.6242C116.63 39.6242 92.2194 49.6481 73.5868 69.6961C54.9542 89.744 45.638 117.811 45.638 154.015C45.638 190.22 54.8363 218.64 73.3509 238.57C91.8656 258.5 116.277 268.406 146.702 268.406C169.108 268.406 188.212 262.746 204.133 251.425C220.053 240.104 229.133 225.598 231.492 207.791H277.13C273.946 237.273 260.266 261.449 235.855 280.081C211.444 298.714 181.844 308.031 146.82 308.031H146.584Z" fill="white"/>
<path d="M390.934 308.03C358.268 308.03 332.678 297.652 314.399 277.014C296.002 256.377 286.922 229.371 286.922 196.115C286.922 162.859 296.12 136.207 314.399 115.452C332.796 94.6961 358.15 84.3184 390.58 84.3184C404.378 84.3184 417.586 87.3845 430.204 93.3989C442.822 99.4133 452.374 107.197 458.978 116.631V87.8562H500.725V304.61H458.978V275.363C453.789 284.798 444.945 292.699 432.327 298.831C419.708 304.964 405.911 308.03 391.052 308.03H390.934ZM347.301 250.834C359.447 264.632 375.603 271.472 395.651 271.472C415.699 271.472 431.855 264.632 444.001 250.834C456.148 237.036 462.28 218.875 462.28 196.233C462.28 173.591 456.148 155.43 444.001 141.632C431.855 127.834 415.699 120.994 395.651 120.994C375.603 120.994 359.447 127.834 347.301 141.632C335.154 155.43 329.022 173.591 329.022 196.233C329.022 218.875 335.154 237.036 347.301 250.834Z" fill="white"/>
<path d="M540.121 392.347V87.8545H581.867V120.167C588.471 109.318 597.906 100.591 610.288 94.1047C622.553 87.6187 636.232 84.4346 651.091 84.4346C683.167 84.4346 708.404 94.8123 726.565 115.568C744.726 136.323 753.924 163.211 753.924 196.231C753.924 229.251 744.49 256.139 725.739 276.895C706.989 297.65 681.398 308.028 648.968 308.028C634.581 308.028 621.491 304.962 609.345 298.83C597.198 292.697 588.118 284.442 581.867 274.064V392.347H540.121ZM596.726 250.832C608.873 264.63 625.029 271.47 645.077 271.47C665.124 271.47 681.28 264.63 693.427 250.832C705.574 237.035 711.706 218.874 711.706 196.231C711.706 173.589 705.574 155.428 693.427 141.63C681.28 127.832 665.124 120.993 645.077 120.993C625.029 120.993 608.873 127.832 596.726 141.63C584.58 155.428 578.448 173.589 578.448 196.231C578.448 218.874 584.58 237.035 596.726 250.832Z" fill="white"/>
<path d="M873.854 308.028C841.424 308.028 815.244 296.943 795.197 274.89C775.149 252.837 765.125 226.185 765.125 194.934C765.125 163.683 774.441 137.031 793.074 116.04C811.706 94.9303 837.179 84.4346 869.609 84.4346C902.039 84.4346 926.922 94.3406 945.082 114.153C963.243 133.965 972.442 158.258 972.442 187.269C972.442 193.047 972.206 198.472 971.616 203.661H806.046C807.815 224.298 814.773 240.926 827.155 253.545C839.419 266.163 855.104 272.413 873.972 272.413C906.638 272.413 926.096 259.677 932.464 234.087H974.211C970.201 256.493 959.116 274.418 941.073 287.862C923.03 301.306 900.624 308.028 873.972 308.028H873.854ZM807.225 172.999H930.224C928.808 156.371 922.794 143.045 912.181 133.021C901.567 122.997 887.416 117.926 869.609 117.926C834.584 117.926 813.829 136.323 807.225 172.999Z" fill="white"/>
<path d="M1093.66 123.946C1058.64 123.946 1041.18 151.424 1041.18 206.497V304.496H999.438V87.7422H1041.18V129.489C1046.02 114.866 1053.09 104.252 1062.29 97.6482C1071.49 91.0442 1083.64 87.7422 1098.85 87.7422H1125.03V123.828H1093.66V123.946Z" fill="white"/>
<path d="M1222.21 308.03C1189.54 308.03 1163.95 297.652 1145.67 277.014C1127.28 256.377 1118.2 229.371 1118.2 196.115C1118.2 162.859 1127.39 136.207 1145.67 115.452C1164.07 94.6961 1189.42 84.3184 1221.85 84.3184C1235.65 84.3184 1248.86 87.3845 1261.48 93.3989C1274.1 99.4133 1283.65 107.197 1290.25 116.631V87.8562H1332V304.61H1290.25V275.363C1285.06 284.798 1276.22 292.699 1263.6 298.831C1250.98 304.964 1237.18 308.03 1222.33 308.03H1222.21ZM1178.57 250.834C1190.72 264.632 1206.88 271.472 1226.92 271.472C1246.97 271.472 1263.13 264.632 1275.27 250.834C1287.42 237.036 1293.55 218.875 1293.55 196.233C1293.55 173.591 1287.42 155.43 1275.27 141.632C1263.13 127.834 1246.97 120.994 1226.92 120.994C1206.88 120.994 1190.72 127.834 1178.57 141.632C1166.43 155.43 1160.3 173.591 1160.3 196.233C1160.3 218.875 1166.43 237.036 1178.57 250.834Z" fill="white"/>
</g>
</svg>
