<?xml version="1.0" ?>
<!-- Uploaded to: SVG Repo, www.svgrepo.com, Generator: SVG Repo Mixer Tools -->
<svg width="800px" height="800px" viewBox="0 0 512 512" xmlns="http://www.w3.org/2000/svg">
<defs>
<style>.e{fill:#fcd17a;}.f{fill:#cecece;}.g{fill:#dfdfdf;}.h{fill:#41a08e;}.i{fill:#365650;}</style>
</defs>
<g id="a"/>
<g id="b"/>
<g id="c">
<g>
<path class="g" d="M351.77051,191.99988l-156.59528,.00024-62.65991-.00024c-2.03375,3.60571-60.51532,136.00024-60.51532,136.00024h32v71.99988c0,13.25488,10.74518,24.00012,24.00006,24.00012l23.99988-.00012c13.25488,0,24.00006,10.74512,24.00006,24v48l128,.00012v-72c40.97852-40.97852,64-96.55737,64-154.50952v-15.62231c0-22.48755-5.89722-43.59766-16.22949-61.86841Z"/>
<path class="f" d="M352.67018,191.99446c-26.62134,34.90149-34.19275,82.74658-15.68408,125.97876v.00012c17.99146,42.02393,57.16858,70.67529,101.97632,75.58118l-86.29224-201.56006Z"/>
<path class="h" d="M256.02539,24c-39.77856,0-72.02539,32.24683-72.02539,72.02539s32.24683,72.02527,72.02539,72.02527,72.02527-32.24683,72.02527-72.02527-32.24683-72.02539-72.02527-72.02539Zm-54.01904,72.02539c0-26.76636,19.46729-48.98584,45.01556-53.27222l.00024,44.26904-37.12683,37.12622c-5.00488-8.19189-7.88898-17.82068-7.88898-28.12305Zm20.58868,42.43469l24.42712-24.42834,.00543,35.2666c-9.12244-1.52954-17.46973-5.34534-24.43256-10.83826Zm42.43353,10.83728v-35.26575l24.42737,24.42822c-6.96155,5.49182-15.30688,9.3075-24.42737,10.83752Zm37.12695-25.14893l-37.12695-37.12622-.0094-44.27051c25.55298,4.28223,45.02515,26.50391,45.02515,53.27368,0,10.30225-2.88403,19.93115-7.88879,28.12305Z"/>
<rect class="e" height="46.64762" transform="translate(40.98488 144.38711) rotate(-59.03624)" width="8.00048" x="143.99976" y="12.67619"/>
<rect class="e" height="72.44308" transform="translate(34.77133 190.84879) rotate(-83.65981)" width="8.00014" x="119.99993" y="39.77846"/>
<rect class="e" height="8.00016" transform="translate(-21.20812 25.87102) rotate(-11.31268)" width="81.58431" x="79.20784" y="115.99992"/>
<rect class="e" height="7.99947" transform="translate(-72.88023 115.5842) rotate(-37.87437)" width="91.21403" x="86.39298" y="160.00026"/>
<rect class="e" height="8.00048" transform="translate(33.35073 192.40671) rotate(-30.96376)" width="46.64762" x="340.67619" y="31.99976"/>
<rect class="e" height="8.00014" transform="translate(-6.02101 43.3282) rotate(-6.34251)" width="72.44308" x="351.77846" y="71.99993"/>
<rect class="e" height="81.58431" transform="translate(197.45279 480.85369) rotate(-78.69007)" width="8.00016" x="387.99992" y="79.20784"/>
<rect class="e" height="91.21403" transform="translate(17.2488 363.26758) rotate(-52.12502)" width="7.99947" x="376.00026" y="118.39298"/>
<path class="i" d="M443.50879,391.98584l-86.29248-201.56006c-.56006-1.30811-1.77246-2.22021-3.18408-2.39551-.16492-.02026-.32947-.02808-.49316-.02808v-.0022H132.51514c-1.44336,0-2.7749,.77783-3.48389,2.03467-2.06982,3.66992-54.69629,122.77979-60.68994,136.34912-.54688,1.2373-.43115,2.6665,.30713,3.7998,.73828,1.13281,1.99902,1.81641,3.35156,1.81641h28v68c0,15.43945,12.56055,28,28,28h24c11.02783,0,20,8.97217,20,20v48h8v-48c0-15.43945-12.56055-28-28-28h-24c-11.02783,0-20-8.97217-20-20v-72c0-2.20898-1.79102-4-4-4h-25.85986c21.39355-48.41602,51.02002-115.26416,56.89355-128h210.73999c-24.40405,36.38696-28.95337,83.00977-11.59595,123.55273v.00049c18.41455,43.01221,58.73145,72.89355,105.21826,77.98291,.146,.01611,.2915,.02393,.43604,.02393,1.2583,0,2.4541-.59424,3.21338-1.61865,.84668-1.14258,1.02295-2.64844,.46338-3.95557Zm-101.97656-75.58154c-16.34619-38.18018-11.99609-82.11475,11.11865-116.31543l80.71777,188.53906c-40.68408-6.83252-75.47412-34.00391-91.83643-72.22363Z"/>
<path class="i" d="M301.17139,421.17139c-.75,.75049-1.17139,1.76758-1.17139,2.82861v72h8v-70.35205c16.2207-16.46338,29.72021-35.26514,40.13623-55.90479l-7.14258-3.60449c-10.28223,20.37549-23.68018,38.89111-39.82227,55.03271Z"/>
<path class="i" d="M256.02539,172.05078c41.92041,0,76.02539-34.10498,76.02539-76.02539s-34.10498-76.02539-76.02539-76.02539-76.02539,34.10498-76.02539,76.02539,34.10498,76.02539,76.02539,76.02539Zm0-144.05078c37.50928,0,68.02539,30.51611,68.02539,68.02539s-30.51611,68.02539-68.02539,68.02539-68.02539-30.51611-68.02539-68.02539,30.51611-68.02539,68.02539-68.02539Z"/>
<path class="i" d="M209.896,128.14844c1.0542,0,2.07324-.41699,2.82812-1.17139l37.12646-37.12646c.75-.75049,1.17139-1.76758,1.17139-2.82861V42.75342c0-1.17676-.51807-2.29346-1.41602-3.05322s-2.08594-1.08789-3.24561-.8916c-28.01807,4.7002-48.354,28.76367-48.354,57.2168,0,10.68652,2.93066,21.13281,8.47559,30.2085,.63965,1.04639,1.72314,1.7417,2.94092,1.88672,.15771,.01855,.31592,.02783,.47314,.02783Zm-3.88965-32.12305c0-22.92236,15.3042-42.53955,37.01562-48.31836v37.6582l-32.16748,32.16748c-3.18359-6.68262-4.84814-14.02539-4.84814-21.50732Z"/>
<path class="i" d="M262.19971,89.85059l37.12695,37.12646c.75488,.75439,1.77393,1.17139,2.82812,1.17139,.15723,0,.31543-.00928,.47314-.02783,1.21777-.14502,2.30127-.84033,2.94092-1.88672,5.54492-9.07568,8.47559-19.52197,8.47559-30.2085,0-28.45801-20.34033-52.52197-48.36426-57.21875-1.16211-.19678-2.34814,.13184-3.24561,.8916-.89795,.76025-1.41602,1.87744-1.41553,3.0542l.00928,44.27051c0,1.06055,.42188,2.07764,1.17139,2.82764Zm43.84473,6.1748c0,7.48193-1.66504,14.82471-4.84814,21.50732l-32.16846-32.16797-.00781-37.66064c21.71631,5.77686,37.02441,25.39502,37.02441,48.32129Z"/>
<path class="i" d="M248.55225,110.33594c-1.49365-.61816-3.21484-.27637-4.35889,.86768l-24.42676,24.42822c-.80762,.80762-1.23145,1.92236-1.16455,3.06299s.61865,2.19775,1.51562,2.90527c7.62646,6.01709,16.70312,10.04297,26.24902,11.64307,.22021,.03711,.44092,.05518,.66113,.05518,.93896,0,1.85693-.33105,2.58447-.94678,.89795-.76025,1.41553-1.87744,1.41553-3.05371l-.00586-35.2666c-.00049-1.61816-.9751-3.07617-2.46973-3.69531Zm-19.80029,27.62354l14.27148-14.27197,.00342,20.6499c-5.05029-1.35986-9.87891-3.5166-14.2749-6.37793Z"/>
<path class="i" d="M267.85693,111.20312c-1.14453-1.14355-2.86426-1.48633-4.35938-.8667-1.49463,.61914-2.46924,2.07764-2.46924,3.69531l.00049,35.26562c0,1.17676,.51807,2.29346,1.41602,3.05371,.72754,.61523,1.64502,.94629,2.58398,.94629,.22021,0,.44141-.01807,.66211-.05518,9.54346-1.60107,18.61816-5.62695,26.24268-11.6416,.89697-.70801,1.44824-1.76514,1.51562-2.90576,.06689-1.14062-.35693-2.25537-1.16455-3.06348l-24.42773-24.42822Zm1.17188,33.13281l-.00049-20.64697,14.27051,14.27051c-4.39453,2.85986-9.22119,5.0166-14.27002,6.37646Z"/>
<rect class="i" height="46.64762" transform="translate(40.98488 144.38711) rotate(-59.03624)" width="8.00048" x="143.99976" y="12.67619"/>
<rect class="i" height="72.44308" transform="translate(34.77133 190.84879) rotate(-83.65981)" width="8.00014" x="119.99993" y="39.77846"/>
<rect class="i" height="8.00016" transform="translate(-21.20812 25.87102) rotate(-11.31268)" width="81.58431" x="79.20784" y="115.99992"/>
<rect class="i" height="7.99947" transform="translate(-72.88023 115.5842) rotate(-37.87437)" width="91.21403" x="86.39298" y="160.00026"/>
<rect class="i" height="8.00048" transform="translate(33.35073 192.40671) rotate(-30.96376)" width="46.64762" x="340.67619" y="31.99976"/>
<rect class="i" height="8.00014" transform="translate(-6.01969 43.31227) rotate(-6.34019)" width="72.44308" x="351.77846" y="71.99993"/>
<rect class="i" height="81.58431" transform="translate(197.45279 480.85369) rotate(-78.69007)" width="8.00016" x="387.99992" y="79.20784"/>
<rect class="i" height="91.21403" transform="translate(17.2488 363.26758) rotate(-52.12502)" width="7.99947" x="376.00026" y="118.39298"/>
</g>
</g>
<g id="d"/>
</svg>